<svg xmlns="http://www.w3.org/2000/svg" width="286" height="104" viewBox="0 0 286 104" version="1.1"><path d="M 43.018 26.708 C 32.541 32.208, 27.381 42.753, 28.205 56.985 L 28.648 64.639 23.574 67.070 C 20.086 68.740, 18.403 70.182, 18.189 71.682 C 17.790 74.485, 20.200 75.771, 27.448 76.623 C 32.738 77.245, 33.232 77.535, 35.039 81.076 C 37.316 85.540, 38.757 86.643, 40.297 85.103 C 41.127 84.273, 40.974 83.226, 39.710 81.086 C 38.769 79.494, 38 77.871, 38 77.479 C 38 77.087, 40.813 77.049, 44.250 77.393 C 47.688 77.737, 53.759 77.651, 57.742 77.201 C 62.020 76.718, 65.361 76.761, 65.905 77.305 C 67.606 79.006, 68.923 77.092, 68.023 74.228 C 67.551 72.728, 66.895 70.263, 66.564 68.750 C 66.096 66.612, 65.385 66, 63.370 66 C 60.949 66, 60.821 66.231, 61.434 69.500 L 62.091 73 49.021 73 L 35.950 73 34.947 70.361 C 34.395 68.910, 34.069 67.635, 34.222 67.527 C 34.375 67.420, 40.345 65.035, 47.490 62.228 C 59.806 57.388, 60.579 57.211, 62.397 58.812 C 64.234 60.429, 64.287 60.395, 63.677 58 C 63.159 55.970, 63.702 54.936, 66.564 52.500 C 78.167 42.627, 70.696 26.725, 53.395 24.469 C 49.210 23.923, 47.705 24.248, 43.018 26.708 M 46.655 29.460 C 41.617 31.255, 38.385 34.374, 35.215 40.500 C 33.078 44.631, 32.617 46.918, 32.564 53.661 C 32.529 58.150, 32.777 62.102, 33.116 62.444 C 33.454 62.785, 38.854 61.090, 45.116 58.678 C 54.431 55.088, 56.560 53.889, 56.828 52.083 C 57.103 50.230, 57.604 49.974, 59.946 50.488 C 65.487 51.705, 70.010 42.643, 66.837 36.684 C 63.511 30.440, 53.733 26.940, 46.655 29.460 M 199.517 58.576 C 198.127 60.076, 196.457 63.148, 195.807 65.402 C 194.575 69.668, 189.692 74.889, 186.867 74.959 C 185.214 75, 184.039 72.279, 184.014 68.357 C 183.982 63.347, 177.511 65.174, 172.150 71.708 L 169.038 75.500 169.644 72.250 C 170.136 69.613, 169.927 69, 168.538 69 C 167.576 69, 166.357 70.244, 165.754 71.841 C 164.713 74.600, 164.629 74.629, 162.841 72.841 C 160.346 70.346, 157.273 70.534, 152.500 73.474 C 147.257 76.703, 146.629 76.617, 148.534 72.934 C 149.901 70.291, 150.513 69.954, 152.965 70.492 C 156.497 71.268, 158.086 69.267, 155.462 67.348 C 152.580 65.241, 150.256 65.733, 146.488 69.250 C 142.014 73.425, 141.564 76.819, 145.205 78.908 C 147.752 80.369, 148.245 80.296, 153.597 77.672 C 157.597 75.710, 159.597 75.197, 160.341 75.941 C 160.924 76.524, 162.210 77, 163.200 77 C 164.190 77, 165 77.420, 165 77.933 C 165 78.446, 165.950 79.167, 167.111 79.535 C 168.753 80.056, 170.263 79.180, 173.896 75.603 C 179.102 70.474, 180 70.092, 180 73 C 180 75.608, 183.436 79, 186.077 79 C 187.219 79, 189.407 77.747, 190.939 76.215 L 193.724 73.430 194.775 76.215 C 196.067 79.638, 198.532 79.798, 203.010 76.750 C 206.612 74.298, 210.690 69.357, 209.825 68.492 C 209.528 68.194, 207.473 69.762, 205.260 71.975 C 203.046 74.189, 200.449 76, 199.488 76 C 198.017 76, 197.822 75.326, 198.257 71.750 C 199.048 65.246, 200.641 62, 203.042 62 C 204.721 62, 205.070 61.473, 204.816 59.327 C 204.378 55.623, 202.500 55.357, 199.517 58.576 M 212 57.099 C 212 58.374, 218.062 64.271, 218.709 63.625 C 218.948 63.386, 218.098 61.578, 216.822 59.607 C 214.588 56.160, 212 54.814, 212 57.099 M 84.196 59.750 C 83.129 61.263, 80.961 64.975, 79.378 68 L 76.500 73.500 76.193 69.250 C 75.936 65.705, 75.538 65, 73.797 65 C 71.830 65, 71.743 65.389, 72.283 71.750 C 72.949 79.599, 73.708 82, 75.523 82 C 77.065 82, 89.270 59.245, 88.445 57.910 C 87.479 56.348, 86.208 56.899, 84.196 59.750 M 113.723 60.753 C 112.827 61.744, 110.914 65.130, 109.473 68.277 C 108.032 71.425, 106.473 74, 106.008 74 C 104.122 74, 102 72.712, 102 71.567 C 102 70.897, 100.958 69.370, 99.686 68.174 C 96.567 65.244, 91.695 65.305, 89.323 68.303 C 88.320 69.570, 86.713 70.906, 85.750 71.272 C 83.265 72.217, 83.570 73.724, 86.923 77.077 C 89.236 79.390, 90.732 80, 94.094 80 C 96.550 80, 99.074 79.338, 100.076 78.431 C 101.543 77.103, 102.424 77.047, 105.816 78.063 C 109.423 79.144, 110.126 79.047, 112.871 77.092 C 114.548 75.898, 116.869 73.588, 118.028 71.960 C 120.444 68.567, 122 68.149, 122 70.893 C 122 73.812, 124.744 74.207, 129.722 72.005 C 135.535 69.433, 135.806 69.465, 136.184 72.750 C 136.591 76.295, 139.392 76.428, 139.800 72.922 C 139.969 71.467, 139.248 69.293, 138.143 67.928 L 136.186 65.511 131.472 67.801 C 128.879 69.061, 126.536 69.869, 126.263 69.597 C 125.991 69.325, 126.202 67.842, 126.731 66.301 C 127.827 63.113, 127.390 61, 125.635 61 C 124.976 61, 121.777 63.688, 118.526 66.974 C 115.275 70.259, 112.455 72.788, 112.260 72.593 C 112.065 72.398, 113.144 69.712, 114.658 66.625 C 116.546 62.776, 117.088 60.688, 116.382 59.982 C 115.676 59.276, 114.840 59.519, 113.723 60.753 M 232.687 70.750 C 228.475 74.930, 228.026 75.166, 228.939 72.714 C 229.779 70.462, 229.680 69.814, 228.422 69.332 C 226.197 68.478, 224.922 70.164, 224.303 74.774 C 223.849 78.162, 224.074 78.889, 225.741 79.418 C 228.612 80.329, 230.371 79.366, 233.929 74.938 C 237.434 70.577, 239 69.978, 239 73 C 239 75.702, 242.470 79, 245.313 79 C 246.587 79, 248.942 77.627, 250.556 75.941 C 253.388 72.985, 253.538 72.946, 255.019 74.775 C 255.861 75.815, 257.214 76.697, 258.025 76.735 C 258.836 76.772, 262.762 77.137, 266.750 77.545 C 273.784 78.265, 274 78.221, 274 76.081 C 274 74.524, 273.479 73.963, 272.231 74.174 C 271.199 74.349, 268.998 72.877, 266.952 70.644 C 264.128 67.563, 262.699 66.794, 259.639 66.707 C 256.454 66.616, 255.322 67.186, 252.668 70.215 C 249.307 74.051, 245.416 76.503, 244.676 75.253 C 244.431 74.839, 243.914 72.588, 243.527 70.250 C 242.904 66.484, 242.519 66, 240.149 66 C 238.296 66, 236.003 67.460, 232.687 70.750 M 213.061 67.962 C 211.237 69.090, 212.367 73.095, 215.591 76.926 C 218.553 80.446, 220.391 80.159, 218.962 76.399 C 218.433 75.008, 218 72.790, 218 71.470 C 218 68.775, 215.090 66.708, 213.061 67.962 M 26.500 70.441 L 23.500 71.688 27.250 72.143 C 29.812 72.454, 31 72.206, 31 71.358 C 31 69.369, 29.710 69.106, 26.500 70.441 M 259.011 70.487 C 256.220 73.850, 260.261 76.129, 265.425 74.105 C 267.292 73.374, 267.285 73.285, 265.175 71.175 C 262.630 68.630, 260.728 68.417, 259.011 70.487 M 92 72 C 92 74.117, 94.411 74.659, 96.878 73.096 C 98.819 71.867, 97.350 70, 94.441 70 C 92.667 70, 92 70.546, 92 72" stroke="none" fill="black" fill-rule="evenodd"/></svg>